<?xml version="1.0" standalone="no"?><svg xmlns="http://www.w3.org/2000/svg" viewBox="0 0 1440 320"><path fill="#081158" fill-opacity="1" d="M0,224L24,224C48,224,96,224,144,202.7C192,181,240,139,288,149.3C336,160,384,224,432,218.7C480,213,528,139,576,133.3C624,128,672,192,720,218.7C768,245,816,235,864,202.7C912,171,960,117,1008,112C1056,107,1104,149,1152,186.7C1200,224,1248,256,1296,250.7C1344,245,1392,203,1416,181.3L1440,160L1440,0L1416,0C1392,0,1344,0,1296,0C1248,0,1200,0,1152,0C1104,0,1056,0,1008,0C960,0,912,0,864,0C816,0,768,0,720,0C672,0,624,0,576,0C528,0,480,0,432,0C384,0,336,0,288,0C240,0,192,0,144,0C96,0,48,0,24,0L0,0Z"></path></svg>